<svg width="4787" height="1053" viewBox="0 0 4787 1053" fill="none" xmlns="http://www.w3.org/2000/svg">
<g filter="url(#filter0_d)">
<path d="M829.36 542C827.333 542 826.32 540.987 826.32 538.96L827.536 121.264C827.536 119.643 828.347 118.832 829.968 118.832H946.704C983.995 118.832 1013.38 130.181 1034.86 152.88C1056.75 175.579 1067.7 206.384 1067.7 245.296C1067.7 274.075 1062.02 299.003 1050.67 320.08C1039.32 341.157 1024.53 357.371 1006.29 368.72C988.048 380.069 968.187 385.744 946.704 385.744H900.496V538.96C900.496 540.987 899.483 542 897.456 542H829.36ZM900.496 312.176H946.704C959.675 312.176 970.821 306.096 980.144 293.936C989.872 281.371 994.736 265.157 994.736 245.296C994.736 229.488 990.48 216.517 981.968 206.384C973.456 196.251 961.701 191.184 946.704 191.184L900.496 191.792V312.176ZM1053.24 538.96L1128.63 121.264C1129.04 119.643 1130.05 118.832 1131.67 118.832H1219.83C1221.46 118.832 1222.47 119.643 1222.87 121.264L1295.23 538.96C1295.63 540.987 1294.82 542 1292.79 542H1225.31C1223.68 542 1222.67 540.987 1222.27 538.96L1215.58 494.576H1132.89L1126.2 538.96C1125.8 540.987 1124.78 542 1123.16 542H1055.67C1054.05 542 1053.24 540.987 1053.24 538.96ZM1145.05 429.52H1203.42L1178.49 258.672L1174.84 236.176L1172.41 258.672L1145.05 429.52ZM1335.81 542C1334.19 542 1333.38 540.987 1333.38 538.96L1334.6 121.264C1334.6 119.643 1335.41 118.832 1337.03 118.832H1459.85C1481.73 118.832 1501.8 124.304 1520.04 135.248C1538.68 145.787 1553.48 160.176 1564.42 178.416C1575.37 196.251 1580.84 216.517 1580.84 239.216C1580.84 254.213 1578.61 267.792 1574.15 279.952C1569.69 291.707 1564.42 301.84 1558.34 310.352C1552.26 318.459 1546.79 324.539 1541.93 328.592C1563.81 352.912 1574.76 381.488 1574.76 414.32L1575.37 538.96C1575.37 540.987 1574.35 542 1572.33 542H1503.62C1502 542 1501.19 541.392 1501.19 540.176V414.32C1501.19 399.728 1495.92 387.163 1485.38 376.624C1475.25 365.68 1462.68 360.208 1447.69 360.208H1407.56L1406.95 538.96C1406.95 540.987 1406.14 542 1404.52 542H1335.81ZM1407.56 287.248H1459.85C1472.41 287.248 1483.56 282.587 1493.29 273.264C1503.01 263.941 1507.88 252.592 1507.88 239.216C1507.88 226.245 1503.01 215.099 1493.29 205.776C1483.96 196.453 1472.82 191.792 1459.85 191.792H1407.56V287.248ZM1606.02 538.96L1681.42 121.264C1681.82 119.643 1682.83 118.832 1684.46 118.832H1772.62C1774.24 118.832 1775.25 119.643 1775.66 121.264L1848.01 538.96C1848.41 540.987 1847.6 542 1845.58 542H1778.09C1776.47 542 1775.45 540.987 1775.05 538.96L1768.36 494.576H1685.67L1678.98 538.96C1678.58 540.987 1677.56 542 1675.94 542H1608.46C1606.83 542 1606.02 540.987 1606.02 538.96ZM1697.83 429.52H1756.2L1731.27 258.672L1727.62 236.176L1725.19 258.672L1697.83 429.52ZM1984.37 548.08C1962.48 548.08 1942.62 542.608 1924.78 531.664C1906.95 520.72 1892.56 506.128 1881.61 487.888C1871.07 469.243 1865.81 448.571 1865.81 425.872V233.136C1865.81 211.248 1871.07 191.184 1881.61 172.944C1892.56 154.299 1906.95 139.504 1924.78 128.56C1943.02 117.616 1962.88 112.144 1984.37 112.144C2006.66 112.144 2026.72 117.616 2044.56 128.56C2062.8 139.099 2077.19 153.488 2087.73 171.728C2098.26 189.968 2103.53 210.437 2103.53 233.136V261.104C2103.53 262.725 2102.52 263.536 2100.49 263.536H2032.4C2030.78 263.536 2029.97 262.725 2029.97 261.104V238C2029.97 222.597 2025.51 209.829 2016.59 199.696C2008.08 189.563 1997.34 184.496 1984.37 184.496C1972.61 184.496 1962.07 189.36 1952.75 199.088C1943.83 208.816 1939.37 220.165 1939.37 233.136V425.872C1939.37 439.248 1943.83 450.8 1952.75 460.528C1961.67 469.851 1972.21 474.512 1984.37 474.512C1997.34 474.512 2008.08 469.851 2016.59 460.528C2025.51 451.205 2029.97 439.653 2029.97 425.872V396.08H1987.41C1985.38 396.08 1984.37 395.067 1984.37 393.04V324.944C1984.37 322.917 1985.38 321.904 1987.41 321.904H2101.1C2102.72 321.904 2103.53 322.917 2103.53 324.944V425.872C2103.53 448.571 2098.06 469.243 2087.12 487.888C2076.58 506.128 2062.39 520.72 2044.56 531.664C2026.72 542.608 2006.66 548.08 1984.37 548.08ZM2259.3 548.08C2237.41 548.08 2217.35 542.608 2199.11 531.664C2181.27 520.315 2166.88 505.52 2155.94 487.28C2145 468.635 2139.52 448.165 2139.52 425.872L2140.13 233.136C2140.13 210.843 2145.4 190.576 2155.94 172.336C2166.88 154.096 2181.48 139.504 2199.72 128.56C2217.96 117.616 2237.82 112.144 2259.3 112.144C2281.19 112.144 2301.05 117.616 2318.88 128.56C2336.72 139.504 2350.91 154.096 2361.44 172.336C2372.39 190.576 2377.86 210.843 2377.86 233.136L2378.47 425.872C2378.47 448.165 2373 468.635 2362.05 487.28C2351.51 505.52 2337.12 520.315 2318.88 531.664C2301.05 542.608 2281.19 548.08 2259.3 548.08ZM2259.3 474.512C2271.46 474.512 2282 469.648 2290.92 459.92C2300.24 449.787 2304.9 438.437 2304.9 425.872L2304.29 233.136C2304.29 219.76 2300.04 208.411 2291.52 199.088C2283.01 189.765 2272.27 185.104 2259.3 185.104C2246.73 185.104 2235.99 189.765 2227.08 199.088C2218.16 208.005 2213.7 219.355 2213.7 233.136V425.872C2213.7 439.248 2218.16 450.8 2227.08 460.528C2235.99 469.851 2246.73 474.512 2259.3 474.512ZM2430.17 542C2426.92 542 2425.3 540.581 2425.3 537.744L2424.7 123.696C2424.7 120.453 2426.32 118.832 2429.56 118.832H2484.28L2587.03 358.384L2583.99 123.696C2583.99 120.453 2585.82 118.832 2589.46 118.832H2649.66C2652.09 118.832 2653.3 120.453 2653.3 123.696L2653.91 538.352C2653.91 540.784 2652.9 542 2650.87 542H2597.37L2492.18 318.256L2496.44 537.136C2496.44 540.379 2494.62 542 2490.97 542H2430.17ZM2908.85 548.08C2886.55 548.08 2866.29 542.608 2848.05 531.664C2830.21 520.315 2816.03 505.317 2805.49 486.672C2794.95 468.027 2789.68 447.152 2789.68 424.048L2790.29 234.352C2790.29 212.059 2795.35 191.792 2805.49 173.552C2816.03 154.907 2830.21 140.112 2848.05 129.168C2866.29 117.819 2886.55 112.144 2908.85 112.144C2931.14 112.144 2951.21 117.616 2969.04 128.56C2986.87 139.504 3001.06 154.299 3011.6 172.944C3022.14 191.184 3027.41 211.653 3027.41 234.352V262.32C3027.41 263.941 3026.6 264.752 3024.98 264.752H2956.88C2955.26 264.752 2954.45 263.941 2954.45 262.32V234.352C2954.45 220.976 2949.99 209.424 2941.07 199.696C2932.56 189.968 2921.82 185.104 2908.85 185.104C2894.26 185.104 2883.11 190.171 2875.41 200.304C2867.71 210.032 2863.86 221.381 2863.86 234.352V424.048C2863.86 439.045 2868.11 451.205 2876.62 460.528C2885.54 469.851 2896.28 474.512 2908.85 474.512C2921.82 474.512 2932.56 469.445 2941.07 459.312C2949.99 448.773 2954.45 437.019 2954.45 424.048V396.08C2954.45 394.459 2955.26 393.648 2956.88 393.648H3025.58C3027.21 393.648 3028.02 394.459 3028.02 396.08V424.048C3028.02 447.152 3022.54 468.027 3011.6 486.672C3001.06 505.317 2986.87 520.315 2969.04 531.664C2951.21 542.608 2931.14 548.08 2908.85 548.08ZM3074.91 542C3073.29 542 3072.48 540.987 3072.48 538.96L3073.69 121.264C3073.69 119.643 3074.5 118.832 3076.12 118.832H3198.94C3220.83 118.832 3240.89 124.304 3259.13 135.248C3277.78 145.787 3292.57 160.176 3303.52 178.416C3314.46 196.251 3319.93 216.517 3319.93 239.216C3319.93 254.213 3317.7 267.792 3313.24 279.952C3308.79 291.707 3303.52 301.84 3297.44 310.352C3291.36 318.459 3285.88 324.539 3281.02 328.592C3302.91 352.912 3313.85 381.488 3313.85 414.32L3314.46 538.96C3314.46 540.987 3313.45 542 3311.42 542H3242.72C3241.09 542 3240.28 541.392 3240.28 540.176V414.32C3240.28 399.728 3235.01 387.163 3224.48 376.624C3214.34 365.68 3201.78 360.208 3186.78 360.208H3146.65L3146.04 538.96C3146.04 540.987 3145.23 542 3143.61 542H3074.91ZM3146.65 287.248H3198.94C3211.51 287.248 3222.65 282.587 3232.38 273.264C3242.11 263.941 3246.97 252.592 3246.97 239.216C3246.97 226.245 3242.11 215.099 3232.38 205.776C3223.06 196.453 3211.91 191.792 3198.94 191.792H3146.65V287.248ZM3368.22 542C3366.6 542 3365.79 540.987 3365.79 538.96L3366.4 121.264C3366.4 119.643 3367.21 118.832 3368.83 118.832H3564C3565.62 118.832 3566.43 119.845 3566.43 121.872V189.968C3566.43 191.589 3565.62 192.4 3564 192.4H3439.36V287.248H3564C3565.62 287.248 3566.43 288.059 3566.43 289.68L3567.04 358.384C3567.04 360.005 3566.23 360.816 3564.6 360.816H3439.36V467.216H3564.6C3566.23 467.216 3567.04 468.229 3567.04 470.256V539.568C3567.04 541.189 3566.23 542 3564.6 542H3368.22ZM3594.49 538.96L3669.88 121.264C3670.29 119.643 3671.3 118.832 3672.92 118.832H3761.08C3762.71 118.832 3763.72 119.643 3764.12 121.264L3836.48 538.96C3836.88 540.987 3836.07 542 3834.04 542H3766.56C3764.93 542 3763.92 540.987 3763.52 538.96L3756.83 494.576H3674.14L3667.45 538.96C3667.05 540.987 3666.03 542 3664.41 542H3596.92C3595.3 542 3594.49 540.987 3594.49 538.96ZM3686.3 429.52H3744.67L3719.74 258.672L3716.09 236.176L3713.66 258.672L3686.3 429.52ZM3906.34 542C3904.72 542 3903.91 540.987 3903.91 538.96V192.4H3824.87C3822.84 192.4 3821.83 191.387 3821.83 189.36L3822.43 121.264C3822.43 119.643 3823.25 118.832 3824.87 118.832H4055.91C4057.93 118.832 4058.95 119.643 4058.95 121.264V189.36C4058.95 191.387 4058.14 192.4 4056.51 192.4H3976.87L3977.47 538.96C3977.47 540.987 3976.66 542 3975.04 542H3906.34ZM4092.02 542C4089.99 542 4088.98 540.987 4088.98 538.96L4089.58 121.264C4089.58 119.643 4090.39 118.832 4092.02 118.832H4160.11C4161.73 118.832 4162.54 119.643 4162.54 121.264L4163.15 538.96C4163.15 540.987 4162.34 542 4160.72 542H4092.02ZM4284.73 542C4283.11 542 4282.09 540.987 4281.69 538.96L4197.78 121.264C4197.38 119.643 4198.19 118.832 4200.22 118.832H4268.92C4270.54 118.832 4271.56 119.643 4271.96 121.264L4321.82 399.728L4370.46 121.264C4370.86 119.643 4371.88 118.832 4373.5 118.832H4441.59C4443.62 118.832 4444.43 119.643 4444.02 121.264L4361.34 538.96C4360.93 540.987 4359.92 542 4358.3 542H4284.73ZM4482.1 542C4480.47 542 4479.66 540.987 4479.66 538.96L4480.27 121.264C4480.27 119.643 4481.08 118.832 4482.7 118.832H4677.87C4679.49 118.832 4680.3 119.845 4680.3 121.872V189.968C4680.3 191.589 4679.49 192.4 4677.87 192.4H4553.23V287.248H4677.87C4679.49 287.248 4680.3 288.059 4680.3 289.68L4680.91 358.384C4680.91 360.005 4680.1 360.816 4678.48 360.816H4553.23V467.216H4678.48C4680.1 467.216 4680.91 468.229 4680.91 470.256V539.568C4680.91 541.189 4680.1 542 4678.48 542H4482.1Z" fill="white"/>
<path d="M1087.27 933.117H1063.43V655.082L971.887 933.117H950.172L859.055 655.082V933.117H835.637V634.219H874.809L961.668 900.332L1047.68 634.219H1087.27V933.117ZM1244.81 657.637L1197.55 814.324H1292.07L1244.81 657.637ZM1260.57 634.219L1355.52 933.117H1327.84L1299.31 837.316H1190.74L1161.79 933.117H1134.54L1229.48 634.219H1260.57ZM1574.37 718.098C1574.37 731.439 1571.39 743.361 1565.43 753.863C1559.46 764.366 1552.37 772.456 1544.14 778.133C1536.19 783.81 1525.4 788.493 1511.78 792.184C1534.2 802.686 1549.53 820.001 1557.76 844.129C1567.41 871.379 1575.08 901.042 1580.75 933.117H1553.08C1546.27 884.578 1536.76 851.367 1524.55 833.484C1509.79 812.763 1494.6 802.402 1478.99 802.402H1452.59V778.133H1477.29C1485.24 778.133 1493.33 777.139 1501.56 775.152C1509.79 773.165 1517.45 769.901 1524.55 765.359C1531.08 760.818 1536.61 754.431 1541.16 746.199C1545.98 737.684 1548.39 728.316 1548.39 718.098C1548.39 707.027 1545.98 697.518 1541.16 689.57C1536.61 681.339 1530.8 674.81 1523.7 669.984C1516.6 665.727 1508.94 662.462 1500.71 660.191C1492.48 657.921 1483.96 656.785 1475.16 656.785H1429.18V933.117H1403.2V634.219H1476.86C1488.79 634.219 1500.57 635.78 1512.2 638.902C1523.84 642.025 1534.06 646.708 1542.86 652.953C1552.23 659.766 1559.75 668.281 1565.43 678.5C1571.39 688.435 1574.37 701.634 1574.37 718.098ZM1812.38 933.117H1779.59L1656.12 786.648V933.117H1631V634.219H1656.12V768.34L1771.93 634.219H1801.73L1681.24 774.301L1812.38 933.117ZM2008.24 933.117H1857.51V634.219H2004.83V657.211H1883.48V764.934H1999.72V788.352H1883.48V909.699H2008.24V933.117ZM2249.23 657.211H2161.95V933.117H2135.97V657.211H2048.69V634.219H2249.23V657.211ZM2325.87 933.117H2299.9V634.219H2325.87V933.117ZM2580.06 933.117H2546.85L2419.12 664.023V933.117H2394.85V634.219H2427.63L2555.79 905.441V634.219H2580.06V933.117ZM2844.47 710.859H2815.95C2815.95 702.344 2814.1 694.112 2810.41 686.164C2807 678.216 2802.18 671.688 2795.93 666.578C2790.26 661.753 2783.73 658.062 2776.35 655.508C2768.97 652.669 2761.45 651.108 2753.78 650.824C2741.29 650.824 2729.37 653.521 2718.02 658.914C2706.95 664.307 2697.01 672.681 2688.21 684.035C2679.41 695.105 2672.6 709.298 2667.77 726.613C2663.23 743.928 2660.96 761.102 2660.96 778.133C2660.96 789.203 2662.24 802.544 2664.79 818.156C2667.35 833.768 2672.46 848.954 2680.12 863.715C2686.93 877.624 2697.58 889.829 2712.05 900.332C2726.53 910.551 2743.56 915.66 2763.15 915.66C2774.22 915.66 2784.86 914.241 2795.08 911.402C2805.3 908.564 2812.11 906.009 2815.52 903.738V800.273H2748.67V776.855H2841.92V917.363C2830 923.892 2817.08 929.001 2803.17 932.691C2789.55 936.098 2773.65 937.801 2755.48 937.801C2735.61 937.801 2717.73 933.117 2701.84 923.75C2685.94 914.383 2672.88 902.319 2662.66 887.559C2652.16 872.23 2644.64 855.199 2640.1 836.465C2635.84 817.447 2633.71 798.003 2633.71 778.133C2633.71 758.263 2635.98 739.529 2640.52 721.93C2645.35 704.047 2652.87 688.151 2663.09 674.242C2673.02 660.901 2685.51 649.973 2700.56 641.457C2715.6 632.941 2733.34 628.684 2753.78 628.684C2766.27 628.684 2777.91 630.812 2788.7 635.07C2799.77 639.328 2809.27 645.005 2817.22 652.102C2825.17 659.766 2831.7 668.707 2836.81 678.926C2841.92 689.145 2844.47 699.789 2844.47 710.859ZM3285.58 932.691H3254.5L3220.01 886.707C3206.1 900.616 3191.63 912.112 3176.58 921.195C3168.92 925.737 3160.54 929.569 3151.46 932.691C3142.38 935.53 3132.87 937.091 3122.93 937.375C3107.32 938.227 3092.14 934.678 3077.38 926.73C3062.9 918.499 3051.97 906.577 3044.59 890.965C3038.35 877.056 3036.5 861.87 3039.05 845.406C3041.89 828.659 3048.85 814.324 3059.92 802.402C3072.12 789.345 3083.34 779.268 3093.55 772.172C3103.77 765.076 3111.86 759.115 3117.82 754.289C3105.33 738.393 3096.54 725.904 3091.43 716.82C3086.6 707.453 3083.76 698.228 3082.91 689.145C3082.06 681.197 3083.05 673.533 3085.89 666.152C3089.01 658.488 3093.13 652.102 3098.24 646.992C3103.92 641.315 3110.73 636.773 3118.68 633.367C3126.62 629.961 3135.42 628.258 3145.07 628.258C3152.45 628.258 3159.98 629.393 3167.64 631.664C3175.59 633.651 3182.54 636.915 3188.5 641.457C3194.75 645.715 3199.72 651.392 3203.41 658.488C3207.38 665.585 3209.51 673.958 3209.79 683.609C3210.08 692.693 3207.1 702.202 3200.85 712.137C3194.89 722.072 3187.08 731.013 3177.43 738.961C3172.61 742.935 3168.21 746.341 3164.23 749.18C3160.54 752.018 3156.57 755.141 3152.31 758.547L3222.99 850.941L3255.78 811.344L3273.66 827.523L3237.04 868.398L3285.58 932.691ZM3184.25 681.055C3184.25 671.12 3180.27 662.888 3172.32 656.359C3164.38 649.547 3155.43 646.141 3145.5 646.141C3135.85 646.141 3127.48 649.831 3120.38 657.211C3113.28 664.307 3109.73 673.107 3109.73 683.609C3109.73 693.544 3112.86 703.763 3119.1 714.266C3125.35 724.484 3131.45 733.568 3137.41 741.516C3143.65 738.393 3150.61 733.142 3158.27 725.762C3163.95 720.936 3169.63 714.691 3175.3 707.027C3181.27 699.363 3184.25 690.706 3184.25 681.055ZM3206.39 869.25L3131.88 772.172C3112.86 784.378 3096.11 798.57 3081.63 814.75C3074.82 822.698 3069.85 832.917 3066.73 845.406C3063.89 857.896 3065.03 870.385 3070.14 882.875C3073.54 892.242 3080.21 900.474 3090.15 907.57C3100.08 914.383 3110.59 917.931 3121.66 918.215C3134.15 918.499 3148.2 914.099 3163.81 905.016C3179.7 895.648 3193.9 883.727 3206.39 869.25ZM3495.49 657.211V909.699H3529.13C3535.66 909.699 3543.18 909.415 3551.7 908.848C3560.21 908.28 3567.31 907.286 3572.98 905.867C3580.36 903.596 3587.89 899.622 3595.55 893.945C3603.21 888.268 3610.45 880.178 3617.27 869.676C3623.51 859.741 3628.76 847.819 3633.02 833.91C3637.28 820.001 3639.41 803.254 3639.41 783.668C3639.41 763.798 3637.28 746.909 3633.02 733C3628.76 719.091 3623.51 707.311 3617.27 697.66C3610.45 687.158 3603.21 679.068 3595.55 673.391C3587.89 667.714 3580.36 663.74 3572.98 661.469C3567.31 660.049 3560.21 659.056 3551.7 658.488C3543.18 657.637 3535.66 657.211 3529.13 657.211H3495.49ZM3469.95 634.219H3530.41C3538.35 634.219 3547.01 634.786 3556.38 635.922C3566.03 636.773 3574.4 638.051 3581.5 639.754C3592.57 642.592 3603.07 647.986 3613.01 655.934C3622.94 663.598 3631.74 673.249 3639.41 684.887C3647.35 695.673 3653.74 709.44 3658.57 726.188C3663.39 742.935 3665.8 762.095 3665.8 783.668C3665.8 804.957 3663.39 824.117 3658.57 841.148C3653.74 857.896 3647.35 871.663 3639.41 882.449C3631.74 894.087 3622.94 903.88 3613.01 911.828C3603.07 919.492 3592.57 924.602 3581.5 927.156C3574.4 928.859 3566.03 930.279 3556.38 931.414C3547.01 932.549 3538.35 933.117 3530.41 933.117H3469.95V634.219ZM3872.73 933.117H3722.01V634.219H3869.33V657.211H3747.98V764.934H3864.22V788.352H3747.98V909.699H3872.73V933.117ZM4083.5 853.922C4083.5 882.591 4074.55 903.738 4056.67 917.363C4039.07 930.988 4015.09 937.801 3984.71 937.801C3973.08 937.801 3961.01 936.382 3948.52 933.543C3936.32 930.421 3926.95 927.866 3920.42 925.879V898.629C3924.4 900.332 3931.92 903.029 3942.99 906.719C3949.52 908.706 3956.61 910.693 3964.28 912.68C3972.23 914.383 3980.17 915.234 3988.12 915.234C3996.64 915.234 4004.58 914.241 4011.96 912.254C4019.63 910.267 4026.58 907.286 4032.83 903.312C4039.36 899.339 4044.89 893.661 4049.43 886.281C4054.26 878.617 4056.67 869.676 4056.67 859.457C4056.67 842.71 4049.72 828.091 4035.81 815.602C4024.74 805.667 4013.1 797.719 4000.89 791.758C3992.38 786.932 3983.15 781.823 3973.22 776.43C3963.57 771.036 3954.48 764.792 3945.97 757.695C3937.45 750.599 3930.64 742.793 3925.53 734.277C3920.42 725.478 3917.87 715.401 3917.87 704.047C3917.87 677.932 3925.67 658.914 3941.29 646.992C3957.18 634.786 3977.62 628.684 4002.6 628.684C4008.84 628.684 4015.23 629.251 4021.76 630.387C4028.29 631.522 4034.53 632.799 4040.49 634.219C4051.28 636.773 4059.65 639.186 4065.61 641.457V664.875C4064.19 664.307 4056.25 661.753 4041.77 657.211C4027.29 652.385 4012.96 649.973 3998.77 649.973C3983.72 649.973 3970.81 654.372 3960.02 663.172C3949.52 671.971 3944.27 684.745 3944.27 701.492C3944.27 708.021 3945.83 713.982 3948.95 719.375C3952.36 724.768 3956.05 729.736 3960.02 734.277C3964.85 738.535 3970.1 742.651 3975.77 746.625C3981.45 750.315 3987.13 753.863 3992.8 757.27C4012.96 767.772 4027.86 776.43 4037.51 783.242C4047.16 789.771 4055.25 796.158 4061.78 802.402C4076.26 817.163 4083.5 834.336 4083.5 853.922ZM4162.69 933.117H4136.72V634.219H4162.69V933.117ZM4428.8 710.859H4400.28C4400.28 702.344 4398.43 694.112 4394.74 686.164C4391.34 678.216 4386.51 671.688 4380.27 666.578C4374.59 661.753 4368.06 658.062 4360.68 655.508C4353.3 652.669 4345.78 651.108 4338.11 650.824C4325.62 650.824 4313.7 653.521 4302.35 658.914C4291.28 664.307 4281.34 672.681 4272.54 684.035C4263.74 695.105 4256.93 709.298 4252.11 726.613C4247.56 743.928 4245.29 761.102 4245.29 778.133C4245.29 789.203 4246.57 802.544 4249.12 818.156C4251.68 833.768 4256.79 848.954 4264.45 863.715C4271.27 877.624 4281.91 889.829 4296.39 900.332C4310.86 910.551 4327.89 915.66 4347.48 915.66C4358.55 915.66 4369.2 914.241 4379.41 911.402C4389.63 908.564 4396.45 906.009 4399.85 903.738V800.273H4333V776.855H4426.25V917.363C4414.33 923.892 4401.41 929.001 4387.5 932.691C4373.88 936.098 4357.98 937.801 4339.82 937.801C4319.95 937.801 4302.06 933.117 4286.17 923.75C4270.27 914.383 4257.21 902.319 4247 887.559C4236.49 872.23 4228.97 855.199 4224.43 836.465C4220.17 817.447 4218.04 798.003 4218.04 778.133C4218.04 758.263 4220.31 739.529 4224.86 721.93C4229.68 704.047 4237.2 688.151 4247.42 674.242C4257.36 660.901 4269.85 649.973 4284.89 641.457C4299.93 632.941 4317.68 628.684 4338.11 628.684C4350.6 628.684 4362.24 630.812 4373.03 635.07C4384.1 639.328 4393.61 645.005 4401.55 652.102C4409.5 659.766 4416.03 668.707 4421.14 678.926C4426.25 689.145 4428.8 699.789 4428.8 710.859ZM4677.89 933.117H4644.68L4516.94 664.023V933.117H4492.67V634.219H4525.46L4653.62 905.441V634.219H4677.89V933.117Z" fill="#E63946"/>
</g>
<g filter="url(#filter1_d)">
<g filter="url(#filter2_d)">
<path d="M25.0863 606.21C26.7362 564.822 61.6257 532.607 103.014 534.257L149.982 536.129C191.843 537.798 224.22 573.435 221.877 615.264L205.426 909.015C203.265 947.603 172.133 978.231 133.515 979.762L91.1473 981.443C47.4128 983.177 11.4914 947.248 13.2348 903.514L25.0863 606.21Z" fill="#8D040E"/>
<path d="M25.0863 606.21C26.7362 564.822 61.6257 532.607 103.014 534.257L149.982 536.129C191.843 537.798 224.22 573.435 221.877 615.264L205.426 909.015C203.265 947.603 172.133 978.231 133.515 979.762L91.1473 981.443C47.4128 983.177 11.4914 947.248 13.2348 903.514L25.0863 606.21Z" stroke="#F3A1A1"/>
</g>
<g filter="url(#filter3_d)">
<path fill-rule="evenodd" clip-rule="evenodd" d="M189.111 100.52C108.064 102.687 42.5777 167.32 39.3483 248.331L18.7772 764.371C22.0811 686.409 235.701 620.704 509.299 594.017C588.935 586.249 652.945 522.597 656.132 442.647L663.727 252.135C667.275 163.123 594.785 89.6757 505.734 92.0563L189.111 100.52ZM268.992 246.958C243.259 247.718 222.502 268.261 221.477 293.985L213.639 490.615C215.011 458.163 302.317 449.861 412.988 444.011C438.345 442.671 458.591 422.318 459.602 396.946L463.721 293.627C464.852 265.25 441.7 241.858 413.314 242.696L268.992 246.958Z" fill="#E63946"/>
</g>
<g filter="url(#filter4_d)">
<circle cx="272.065" cy="396.628" r="24.472" fill="#8D040E"/>
<circle cx="272.065" cy="396.628" r="23.472" stroke="#F3A1A1" stroke-width="2"/>
</g>
<g filter="url(#filter5_d)">
<circle cx="339.255" cy="392.287" r="24.472" fill="#8D040E"/>
<circle cx="339.255" cy="392.287" r="23.472" stroke="#F3A1A1" stroke-width="2"/>
</g>
<g filter="url(#filter6_d)">
<circle cx="406.446" cy="388.391" r="24.472" fill="#8D040E"/>
<circle cx="406.446" cy="388.391" r="23.472" stroke="#F3A1A1" stroke-width="2"/>
</g>
</g>
<defs>
<filter id="filter0_d" x="826.32" y="112.144" width="3863.59" height="834.657" filterUnits="userSpaceOnUse" color-interpolation-filters="sRGB">
<feFlood flood-opacity="0" result="BackgroundImageFix"/>
<feColorMatrix in="SourceAlpha" type="matrix" values="0 0 0 0 0 0 0 0 0 0 0 0 0 0 0 0 0 0 127 0"/>
<feOffset dx="5" dy="5"/>
<feGaussianBlur stdDeviation="2"/>
<feColorMatrix type="matrix" values="0 0 0 0 0.345833 0 0 0 0 0.213264 0 0 0 0 0.213264 0 0 0 0.25 0"/>
<feBlend mode="normal" in2="BackgroundImageFix" result="effect1_dropShadow"/>
<feBlend mode="normal" in="SourceGraphic" in2="effect1_dropShadow" result="shape"/>
</filter>
<filter id="filter1_d" x="10.2473" y="92" width="662.605" height="903.306" filterUnits="userSpaceOnUse" color-interpolation-filters="sRGB">
<feFlood flood-opacity="0" result="BackgroundImageFix"/>
<feColorMatrix in="SourceAlpha" type="matrix" values="0 0 0 0 0 0 0 0 0 0 0 0 0 0 0 0 0 0 127 0"/>
<feOffset dx="5" dy="5"/>
<feGaussianBlur stdDeviation="2"/>
<feColorMatrix type="matrix" values="0 0 0 0 0.345833 0 0 0 0 0.213264 0 0 0 0 0.213264 0 0 0 0.25 0"/>
<feBlend mode="normal" in2="BackgroundImageFix" result="effect1_dropShadow"/>
<feBlend mode="normal" in="SourceGraphic" in2="effect1_dropShadow" result="shape"/>
</filter>
<filter id="filter2_d" x="0.247253" y="531.27" width="234.676" height="482.037" filterUnits="userSpaceOnUse" color-interpolation-filters="sRGB">
<feFlood flood-opacity="0" result="BackgroundImageFix"/>
<feColorMatrix in="SourceAlpha" type="matrix" values="0 0 0 0 0 0 0 0 0 0 0 0 0 0 0 0 0 0 127 0"/>
<feOffset dy="17"/>
<feGaussianBlur stdDeviation="5"/>
<feColorMatrix type="matrix" values="0 0 0 0 0 0 0 0 0 0 0 0 0 0 0 0 0 0 0.25 0"/>
<feBlend mode="normal" in2="BackgroundImageFix" result="effect1_dropShadow"/>
<feBlend mode="normal" in="SourceGraphic" in2="effect1_dropShadow" result="shape"/>
</filter>
<filter id="filter3_d" x="0.777222" y="83" width="681.075" height="708.371" filterUnits="userSpaceOnUse" color-interpolation-filters="sRGB">
<feFlood flood-opacity="0" result="BackgroundImageFix"/>
<feColorMatrix in="SourceAlpha" type="matrix" values="0 0 0 0 0 0 0 0 0 0 0 0 0 0 0 0 0 0 127 0"/>
<feOffset dy="9"/>
<feGaussianBlur stdDeviation="9"/>
<feColorMatrix type="matrix" values="0 0 0 0 0 0 0 0 0 0 0 0 0 0 0 0 0 0 0.25 0"/>
<feBlend mode="normal" in2="BackgroundImageFix" result="effect1_dropShadow"/>
<feBlend mode="normal" in="SourceGraphic" in2="effect1_dropShadow" result="shape"/>
</filter>
<filter id="filter4_d" x="239.593" y="372.156" width="64.9439" height="68.9439" filterUnits="userSpaceOnUse" color-interpolation-filters="sRGB">
<feFlood flood-opacity="0" result="BackgroundImageFix"/>
<feColorMatrix in="SourceAlpha" type="matrix" values="0 0 0 0 0 0 0 0 0 0 0 0 0 0 0 0 0 0 127 0"/>
<feOffset dy="12"/>
<feGaussianBlur stdDeviation="4"/>
<feColorMatrix type="matrix" values="0 0 0 0 0 0 0 0 0 0 0 0 0 0 0 0 0 0 0.25 0"/>
<feBlend mode="normal" in2="BackgroundImageFix" result="effect1_dropShadow"/>
<feBlend mode="normal" in="SourceGraphic" in2="effect1_dropShadow" result="shape"/>
</filter>
<filter id="filter5_d" x="306.783" y="367.815" width="64.9439" height="68.9439" filterUnits="userSpaceOnUse" color-interpolation-filters="sRGB">
<feFlood flood-opacity="0" result="BackgroundImageFix"/>
<feColorMatrix in="SourceAlpha" type="matrix" values="0 0 0 0 0 0 0 0 0 0 0 0 0 0 0 0 0 0 127 0"/>
<feOffset dy="12"/>
<feGaussianBlur stdDeviation="4"/>
<feColorMatrix type="matrix" values="0 0 0 0 0 0 0 0 0 0 0 0 0 0 0 0 0 0 0.25 0"/>
<feBlend mode="normal" in2="BackgroundImageFix" result="effect1_dropShadow"/>
<feBlend mode="normal" in="SourceGraphic" in2="effect1_dropShadow" result="shape"/>
</filter>
<filter id="filter6_d" x="373.974" y="363.919" width="64.9439" height="68.9439" filterUnits="userSpaceOnUse" color-interpolation-filters="sRGB">
<feFlood flood-opacity="0" result="BackgroundImageFix"/>
<feColorMatrix in="SourceAlpha" type="matrix" values="0 0 0 0 0 0 0 0 0 0 0 0 0 0 0 0 0 0 127 0"/>
<feOffset dy="12"/>
<feGaussianBlur stdDeviation="4"/>
<feColorMatrix type="matrix" values="0 0 0 0 0 0 0 0 0 0 0 0 0 0 0 0 0 0 0.25 0"/>
<feBlend mode="normal" in2="BackgroundImageFix" result="effect1_dropShadow"/>
<feBlend mode="normal" in="SourceGraphic" in2="effect1_dropShadow" result="shape"/>
</filter>
</defs>
</svg>
