<svg width="239" height="226" viewBox="0 0 239 226" fill="none" xmlns="http://www.w3.org/2000/svg">
<mask id="path-1-inside-1" fill="white">
<path fill-rule="evenodd" clip-rule="evenodd" d="M82 0C84.7614 0 87 2.23858 87 5V42C87 44.7614 89.2386 47 92 47H139C141.761 47 144 49.2386 144 52V67C144 69.7614 141.761 72 139 72H92C89.2386 72 87 74.2386 87 77V123C87 125.761 84.7614 128 82 128H64C61.2386 128 59 125.761 59 123V5C59 2.23858 61.2386 0 64 0H82ZM175 0C177.761 0 180 2.23858 180 5V118.897C180 118.954 179.954 119 179.897 119C179.843 119 179.798 119.042 179.794 119.096C177.202 150.954 150.526 176 118 176C93.6503 176 72.5792 161.963 62.4369 141.54C60.8967 138.438 63.2976 135 66.7605 135H86.81C88.4908 135 90.0387 135.861 91.0714 137.187C97.3127 145.203 107.054 150.358 118 150.358C135.912 150.358 150.599 136.552 152 119L152 119V5C152 2.23858 154.239 0 157 0H175Z"/>
</mask>
<path fill-rule="evenodd" clip-rule="evenodd" d="M82 0C84.7614 0 87 2.23858 87 5V42C87 44.7614 89.2386 47 92 47H139C141.761 47 144 49.2386 144 52V67C144 69.7614 141.761 72 139 72H92C89.2386 72 87 74.2386 87 77V123C87 125.761 84.7614 128 82 128H64C61.2386 128 59 125.761 59 123V5C59 2.23858 61.2386 0 64 0H82ZM175 0C177.761 0 180 2.23858 180 5V118.897C180 118.954 179.954 119 179.897 119C179.843 119 179.798 119.042 179.794 119.096C177.202 150.954 150.526 176 118 176C93.6503 176 72.5792 161.963 62.4369 141.54C60.8967 138.438 63.2976 135 66.7605 135H86.81C88.4908 135 90.0387 135.861 91.0714 137.187C97.3127 145.203 107.054 150.358 118 150.358C135.912 150.358 150.599 136.552 152 119L152 119V5C152 2.23858 154.239 0 157 0H175Z" fill="white"/>
<path d="M179.794 119.096L176.803 118.852L176.803 118.852L179.794 119.096ZM62.4369 141.54L59.75 142.874L59.75 142.874L62.4369 141.54ZM91.0714 137.187L93.4384 135.344L93.4384 135.344L91.0714 137.187ZM152 119L149.879 116.879L149.097 117.66L149.009 118.761L152 119ZM152 119L154.121 121.121L155 120.243V119H152ZM90 5C90 0.581723 86.4183 -3 82 -3V3C83.1046 3 84 3.89543 84 5H90ZM90 42V5H84V42H90ZM92 44C90.8954 44 90 43.1046 90 42H84C84 46.4183 87.5817 50 92 50V44ZM139 44H92V50H139V44ZM147 52C147 47.5817 143.418 44 139 44V50C140.105 50 141 50.8954 141 52H147ZM147 67V52H141V67H147ZM139 75C143.418 75 147 71.4183 147 67H141C141 68.1046 140.105 69 139 69V75ZM92 75H139V69H92V75ZM90 77C90 75.8954 90.8954 75 92 75V69C87.5817 69 84 72.5817 84 77H90ZM90 123V77H84V123H90ZM82 131C86.4183 131 90 127.418 90 123H84C84 124.105 83.1046 125 82 125V131ZM64 131H82V125H64V131ZM56 123C56 127.418 59.5817 131 64 131V125C62.8954 125 62 124.105 62 123H56ZM56 5V123H62V5H56ZM64 -3C59.5817 -3 56 0.581722 56 5H62C62 3.89543 62.8954 3 64 3V-3ZM82 -3H64V3H82V-3ZM183 5C183 0.581721 179.418 -3 175 -3V3C176.105 3 177 3.89543 177 5H183ZM183 118.897V5H177V118.897H183ZM179.897 122C181.61 122 183 120.611 183 118.897H177C177 117.297 178.297 116 179.897 116V122ZM182.784 119.339C182.663 120.824 181.424 122 179.897 122V116C178.261 116 176.933 117.26 176.803 118.852L182.784 119.339ZM118 179C152.101 179 180.067 152.741 182.784 119.339L176.803 118.852C174.338 149.166 148.951 173 118 173V179ZM59.75 142.874C70.3794 164.278 92.4677 179 118 179V173C94.833 173 74.779 159.648 65.1238 140.206L59.75 142.874ZM66.7605 132C61.3634 132 57.0924 137.523 59.75 142.874L65.1238 140.206C64.8667 139.688 64.93 139.199 65.2103 138.783C65.5071 138.343 66.0513 138 66.7605 138V132ZM86.81 132H66.7605V138H86.81V132ZM93.4384 135.344C91.918 133.392 89.5398 132 86.81 132V138C87.4418 138 88.1595 138.331 88.7044 139.03L93.4384 135.344ZM118 147.358C108.019 147.358 99.1358 142.661 93.4384 135.344L88.7044 139.03C95.4896 147.744 106.09 153.358 118 153.358V147.358ZM149.009 118.761C147.732 134.766 134.335 147.358 118 147.358V153.358C137.489 153.358 153.466 138.337 154.99 119.239L149.009 118.761ZM149.879 116.879L149.879 116.879L154.121 121.121L154.121 121.121L149.879 116.879ZM149 5V119H155V5H149ZM157 -3C152.582 -3 149 0.58172 149 5H155C155 3.89543 155.895 3 157 3V-3ZM175 -3H157V3H175V-3Z" fill="#5B5B5B" mask="url(#path-1-inside-1)"/>
<path d="M59.3438 221V220.016L60.6172 219.797V210.836L59.3438 210.617V209.625H64.5703C65.7839 209.625 66.7266 209.938 67.3984 210.562C68.0755 211.188 68.4141 212.01 68.4141 213.031C68.4141 214.062 68.0755 214.888 67.3984 215.508C66.7266 216.128 65.7839 216.438 64.5703 216.438H62.1562V219.797L63.4297 220.016V221H59.3438ZM62.1562 215.234H64.5703C65.3411 215.234 65.9167 215.029 66.2969 214.617C66.6823 214.201 66.875 213.677 66.875 213.047C66.875 212.417 66.6823 211.891 66.2969 211.469C65.9167 211.047 65.3411 210.836 64.5703 210.836H62.1562V215.234ZM69.4844 221V220.016L70.7578 219.797V210.836L69.4844 210.617V209.625H73.5703V210.617L72.2969 210.836V214.766H77.7344V210.836L76.4609 210.617V209.625H80.5469V210.617L79.2734 210.836V219.797L80.5469 220.016V221H76.4609V220.016L77.7344 219.797V215.977H72.2969V219.797L73.5703 220.016V221H69.4844ZM86.4531 221.164C85.474 221.164 84.6302 220.919 83.9219 220.43C83.2188 219.94 82.6771 219.263 82.2969 218.398C81.9167 217.529 81.7266 216.529 81.7266 215.398V215.234C81.7266 214.104 81.9141 213.107 82.2891 212.242C82.6693 211.372 83.2135 210.693 83.9219 210.203C84.6302 209.708 85.474 209.461 86.4531 209.461C87.4896 209.461 88.3568 209.708 89.0547 210.203C89.7578 210.693 90.2891 211.372 90.6484 212.242C91.0078 213.107 91.1875 214.104 91.1875 215.234V215.398C91.1875 216.529 91.0078 217.529 90.6484 218.398C90.2891 219.263 89.7578 219.94 89.0547 220.43C88.3568 220.919 87.4896 221.164 86.4531 221.164ZM86.4531 219.883C87.2083 219.883 87.8177 219.695 88.2812 219.32C88.75 218.945 89.0938 218.422 89.3125 217.75C89.5312 217.073 89.6406 216.289 89.6406 215.398V215.219C89.6406 214.333 89.5286 213.557 89.3047 212.891C89.0859 212.219 88.7422 211.695 88.2734 211.32C87.8047 210.94 87.1979 210.75 86.4531 210.75C85.7708 210.75 85.1927 210.94 84.7188 211.32C84.2448 211.701 83.8854 212.227 83.6406 212.898C83.3958 213.565 83.2734 214.339 83.2734 215.219V215.398C83.2734 216.284 83.3958 217.065 83.6406 217.742C83.8854 218.414 84.2448 218.94 84.7188 219.32C85.1927 219.695 85.7708 219.883 86.4531 219.883ZM94.9609 221V220.016L96.2344 219.797V210.789H93.6562L93.4297 212.367H92.2734V209.625H101.727V212.367H100.586L100.352 210.789H97.7734V219.797L99.0469 220.016V221H94.9609ZM107.562 221.164C106.583 221.164 105.74 220.919 105.031 220.43C104.328 219.94 103.786 219.263 103.406 218.398C103.026 217.529 102.836 216.529 102.836 215.398V215.234C102.836 214.104 103.023 213.107 103.398 212.242C103.779 211.372 104.323 210.693 105.031 210.203C105.74 209.708 106.583 209.461 107.562 209.461C108.599 209.461 109.466 209.708 110.164 210.203C110.867 210.693 111.398 211.372 111.758 212.242C112.117 213.107 112.297 214.104 112.297 215.234V215.398C112.297 216.529 112.117 217.529 111.758 218.398C111.398 219.263 110.867 219.94 110.164 220.43C109.466 220.919 108.599 221.164 107.562 221.164ZM107.562 219.883C108.318 219.883 108.927 219.695 109.391 219.32C109.859 218.945 110.203 218.422 110.422 217.75C110.641 217.073 110.75 216.289 110.75 215.398V215.219C110.75 214.333 110.638 213.557 110.414 212.891C110.195 212.219 109.852 211.695 109.383 211.32C108.914 210.94 108.307 210.75 107.562 210.75C106.88 210.75 106.302 210.94 105.828 211.32C105.354 211.701 104.995 212.227 104.75 212.898C104.505 213.565 104.383 214.339 104.383 215.219V215.398C104.383 216.284 104.505 217.065 104.75 217.742C104.995 218.414 105.354 218.94 105.828 219.32C106.302 219.695 106.88 219.883 107.562 219.883ZM119.055 221.164C118.003 221.164 117.091 220.922 116.32 220.438C115.549 219.948 114.956 219.271 114.539 218.406C114.122 217.542 113.914 216.542 113.914 215.406V215.219C113.914 214.073 114.122 213.07 114.539 212.211C114.961 211.346 115.536 210.672 116.266 210.188C116.995 209.703 117.823 209.461 118.75 209.461C119.635 209.461 120.385 209.562 121 209.766C121.62 209.969 122.148 210.242 122.586 210.586V212.883H121.32L121.156 211.234C120.646 210.896 119.896 210.727 118.906 210.727C118.255 210.727 117.669 210.914 117.148 211.289C116.628 211.664 116.216 212.188 115.914 212.859C115.612 213.526 115.461 214.307 115.461 215.203V215.406C115.461 216.312 115.599 217.104 115.875 217.781C116.156 218.453 116.565 218.977 117.102 219.352C117.638 219.721 118.289 219.906 119.055 219.906C119.576 219.906 120.016 219.862 120.375 219.773C120.734 219.68 121.052 219.56 121.328 219.414V216.742L119.148 216.664V215.531H122.867V219.938C122.539 220.245 122.068 220.526 121.453 220.781C120.844 221.036 120.044 221.164 119.055 221.164ZM124.438 221V220.016L125.711 219.797V210.836L124.438 210.617V209.633H129.508C130.747 209.633 131.698 209.909 132.359 210.461C133.021 211.008 133.352 211.786 133.352 212.797C133.352 213.578 133.156 214.211 132.766 214.695C132.375 215.18 131.831 215.513 131.133 215.695L133.055 219.852L133.844 219.992V221H131.945L129.664 215.875L127.25 215.922V219.797L128.523 220.016V221H124.438ZM127.25 214.711H129.352C130.211 214.711 130.836 214.547 131.227 214.219C131.617 213.891 131.812 213.411 131.812 212.781C131.812 212.182 131.625 211.708 131.25 211.359C130.875 211.01 130.294 210.836 129.508 210.836H127.25V214.711ZM135.18 221V220.016L136.023 219.898L140 209.625H141.32L145.227 219.898L146.062 220.016V221H142.797V220.016L143.656 219.867L142.906 217.773H138.352L137.578 219.867L138.438 220.016V221H135.18ZM138.828 216.484H142.438L140.766 211.859L140.672 211.602H140.625L140.531 211.859L138.828 216.484ZM147.25 221V220.016L148.523 219.797V210.836L147.25 210.617V209.625H152.477C153.69 209.625 154.633 209.938 155.305 210.562C155.982 211.188 156.32 212.01 156.32 213.031C156.32 214.062 155.982 214.888 155.305 215.508C154.633 216.128 153.69 216.438 152.477 216.438H150.062V219.797L151.336 220.016V221H147.25ZM150.062 215.234H152.477C153.247 215.234 153.823 215.029 154.203 214.617C154.589 214.201 154.781 213.677 154.781 213.047C154.781 212.417 154.589 211.891 154.203 211.469C153.823 211.047 153.247 210.836 152.477 210.836H150.062V215.234ZM157.391 221V220.016L158.664 219.797V210.836L157.391 210.617V209.625H161.477V210.617L160.203 210.836V214.766H165.641V210.836L164.367 210.617V209.625H168.453V210.617L167.18 210.836V219.797L168.453 220.016V221H164.367V220.016L165.641 219.797V215.977H160.203V219.797L161.477 220.016V221H157.391ZM172.539 221V220.016L173.812 219.797V216.859L170.312 210.766L169.375 210.617V209.625H173.297V210.617L172 210.766L174.414 215.234L174.578 215.539L174.586 215.523L174.742 215.234L177.273 210.766L175.93 210.617V209.625H179.773V210.617L178.781 210.766L175.344 216.742V219.797L176.617 220.016V221H172.539Z" fill="#5B5B5B"/>
<path d="M59.4289 204V202.954L60.7819 202.722V193.201L59.4289 192.968V191.914H63.7702V192.968L62.4172 193.201V197.376H68.1945V193.201L66.8415 192.968V191.914H71.1828V192.968L69.8298 193.201V202.722L71.1828 202.954V204H66.8415V202.954L68.1945 202.722V198.663H62.4172V202.722L63.7702 202.954V204H59.4289ZM72.7762 204V202.954L73.6727 202.83L77.8978 191.914H79.3006L83.451 202.83L84.3392 202.954V204H80.8695V202.954L81.7826 202.796L80.9857 200.572H76.1463L75.3246 202.796L76.2377 202.954V204H72.7762ZM76.6527 199.202H80.4877L78.7113 194.288L78.6117 194.014H78.5619L78.4623 194.288L76.6527 199.202ZM85.9409 204V202.954L87.294 202.722V193.201L85.9409 192.968V191.914H90.2822V192.968L88.9292 193.201V202.747H93.2041L93.395 200.837H94.6485V204H85.9409ZM96.3249 204V202.954L97.6779 202.722V193.201L96.3249 192.968V191.914H105.273V194.819H103.962L103.779 193.176H99.3132V197.11H103.771V198.397H99.3132V202.771H104.045L104.227 201.103H105.53V204H96.3249ZM110.735 204V202.954L112.088 202.722V199.601L108.369 193.126L107.373 192.968V191.914H111.54V192.968L110.162 193.126L112.727 197.874L112.901 198.198L112.91 198.181L113.076 197.874L115.765 193.126L114.337 192.968V191.914H118.421V192.968L117.367 193.126L113.715 199.476V202.722L115.068 202.954V204H110.735ZM128.058 204.174C127.388 204.174 126.779 204.042 126.232 203.776C125.689 203.51 125.252 203.109 124.92 202.572C124.594 202.035 124.414 201.363 124.381 200.555L124.397 200.505H125.966C125.988 201.319 126.173 201.917 126.522 202.298C126.876 202.68 127.38 202.871 128.033 202.871C128.719 202.871 129.223 202.658 129.544 202.232C129.865 201.8 130.025 201.247 130.025 200.572V193.201L128.415 192.985V191.914H133.013V192.968L131.66 193.201V200.572C131.66 201.656 131.353 202.528 130.739 203.187C130.13 203.845 129.236 204.174 128.058 204.174ZM139.537 204.174C138.497 204.174 137.601 203.914 136.848 203.394C136.101 202.874 135.525 202.154 135.121 201.236C134.717 200.312 134.515 199.249 134.515 198.048V197.874C134.515 196.673 134.715 195.613 135.113 194.695C135.517 193.771 136.095 193.049 136.848 192.528C137.601 192.003 138.497 191.74 139.537 191.74C140.639 191.74 141.56 192.003 142.302 192.528C143.049 193.049 143.613 193.771 143.995 194.695C144.377 195.613 144.568 196.673 144.568 197.874V198.048C144.568 199.249 144.377 200.312 143.995 201.236C143.613 202.154 143.049 202.874 142.302 203.394C141.56 203.914 140.639 204.174 139.537 204.174ZM139.537 202.813C140.34 202.813 140.987 202.614 141.48 202.215C141.978 201.817 142.343 201.261 142.576 200.547C142.808 199.827 142.924 198.995 142.924 198.048V197.857C142.924 196.917 142.805 196.092 142.567 195.384C142.335 194.67 141.97 194.114 141.471 193.715C140.973 193.311 140.329 193.109 139.537 193.109C138.812 193.109 138.198 193.311 137.695 193.715C137.191 194.119 136.809 194.678 136.549 195.392C136.289 196.1 136.159 196.922 136.159 197.857V198.048C136.159 198.989 136.289 199.819 136.549 200.539C136.809 201.252 137.191 201.811 137.695 202.215C138.198 202.614 138.812 202.813 139.537 202.813ZM146.186 204V202.954L147.539 202.722V193.201L146.186 192.968V191.914H149.191L155.118 201.335L155.167 201.319V193.201L153.682 192.968V191.914H158.023V192.968L156.67 193.201V204H155.176L149.091 194.529L149.041 194.545V202.722L150.527 202.954V204H146.186ZM159.724 204V202.954L161.077 202.722V193.201L159.724 192.968V191.914H168.673V194.819H167.361L167.178 193.176H162.713V197.11H167.17V198.397H162.713V202.771H167.444L167.627 201.103H168.93V204H159.724ZM175.263 204.174C174.527 204.174 173.819 204.066 173.138 203.851C172.457 203.635 171.807 203.303 171.187 202.854V200.273H172.457L172.731 202.174C173.091 202.395 173.481 202.567 173.902 202.688C174.322 202.81 174.776 202.871 175.263 202.871C176.088 202.871 176.727 202.688 177.18 202.323C177.634 201.952 177.861 201.468 177.861 200.871C177.861 200.317 177.656 199.858 177.247 199.493C176.837 199.127 176.107 198.826 175.055 198.588C173.805 198.3 172.85 197.863 172.192 197.276C171.533 196.684 171.204 195.94 171.204 195.043C171.204 194.413 171.37 193.848 171.702 193.35C172.04 192.852 172.507 192.459 173.105 192.171C173.702 191.884 174.4 191.74 175.197 191.74C176.043 191.74 176.79 191.87 177.438 192.13C178.091 192.384 178.628 192.694 179.048 193.06V195.475H177.778L177.504 193.749C177.255 193.549 176.945 193.383 176.575 193.25C176.204 193.118 175.744 193.051 175.197 193.051C174.494 193.051 173.924 193.231 173.487 193.591C173.055 193.951 172.839 194.426 172.839 195.019C172.839 195.539 173.047 195.965 173.462 196.297C173.877 196.623 174.596 196.914 175.62 197.168C176.893 197.484 177.856 197.951 178.509 198.571C179.167 199.186 179.496 199.946 179.496 200.854C179.496 201.501 179.322 202.077 178.973 202.581C178.625 203.079 178.132 203.469 177.496 203.751C176.865 204.033 176.121 204.174 175.263 204.174Z" fill="#5B5B5B"/>
</svg>
