<svg width="139" height="207" viewBox="0 0 139 207" fill="none" xmlns="http://www.w3.org/2000/svg">
<mask id="path-1-inside-1" fill="white">
<path fill-rule="evenodd" clip-rule="evenodd" d="M32 0C34.7614 0 37 2.23858 37 5V42C37 44.7614 39.2386 47 42 47H89C91.7614 47 94 49.2386 94 52V67C94 69.7614 91.7614 72 89 72H42C39.2386 72 37 74.2386 37 77V123C37 125.761 34.7614 128 32 128H14C11.2386 128 9 125.761 9 123V5C9 2.23858 11.2386 0 14 0H32ZM125 0C127.761 0 130 2.23858 130 5V118.897C130 118.954 129.954 119 129.897 119C129.843 119 129.798 119.042 129.794 119.096C127.202 150.954 100.526 176 68 176C43.6503 176 22.5792 161.963 12.4369 141.54C10.8967 138.438 13.2976 135 16.7605 135H36.81C38.4908 135 40.0387 135.861 41.0714 137.187C47.3127 145.203 57.0542 150.358 67.9999 150.358C85.9119 150.358 100.599 136.552 102 119L102 119V5C102 2.23858 104.239 0 107 0H125Z"/>
</mask>
<path d="M129.794 119.096L126.803 118.852L126.803 118.852L129.794 119.096ZM12.4369 141.54L9.74997 142.874L9.74997 142.874L12.4369 141.54ZM41.0714 137.187L43.4384 135.344L43.4384 135.344L41.0714 137.187ZM102 119L99.8786 116.879L99.0973 117.66L99.0094 118.761L102 119ZM102 119L104.121 121.121L105 120.243V119H102ZM40 5C40 0.581723 36.4183 -3 32 -3V3C33.1046 3 34 3.89543 34 5H40ZM40 42V5H34V42H40ZM42 44C40.8954 44 40 43.1046 40 42H34C34 46.4183 37.5817 50 42 50V44ZM89 44H42V50H89V44ZM97 52C97 47.5817 93.4183 44 89 44V50C90.1046 50 91 50.8954 91 52H97ZM97 67V52H91V67H97ZM89 75C93.4183 75 97 71.4183 97 67H91C91 68.1046 90.1046 69 89 69V75ZM42 75H89V69H42V75ZM40 77C40 75.8954 40.8954 75 42 75V69C37.5817 69 34 72.5817 34 77H40ZM40 123V77H34V123H40ZM32 131C36.4183 131 40 127.418 40 123H34C34 124.105 33.1046 125 32 125V131ZM14 131H32V125H14V131ZM6 123C6 127.418 9.58172 131 14 131V125C12.8954 125 12 124.105 12 123H6ZM6 5V123H12V5H6ZM14 -3C9.58172 -3 6 0.581722 6 5H12C12 3.89543 12.8954 3 14 3V-3ZM32 -3H14V3H32V-3ZM133 5C133 0.581721 129.418 -3 125 -3V3C126.105 3 127 3.89543 127 5H133ZM133 118.897V5H127V118.897H133ZM129.897 122C131.61 122 133 120.611 133 118.897H127C127 117.297 128.297 116 129.897 116V122ZM132.784 119.339C132.663 120.824 131.424 122 129.897 122V116C128.261 116 126.933 117.26 126.803 118.852L132.784 119.339ZM68 179C102.101 179 130.067 152.741 132.784 119.339L126.803 118.852C124.338 149.166 98.9506 173 68 173V179ZM9.74997 142.874C20.3794 164.278 42.4677 179 68 179V173C44.833 173 24.779 159.648 15.1238 140.206L9.74997 142.874ZM16.7605 132C11.3634 132 7.09242 137.523 9.74997 142.874L15.1238 140.206C14.8667 139.688 14.93 139.199 15.2103 138.783C15.5071 138.343 16.0513 138 16.7605 138V132ZM36.81 132H16.7605V138H36.81V132ZM43.4384 135.344C41.918 133.392 39.5398 132 36.81 132V138C37.4418 138 38.1595 138.331 38.7044 139.03L43.4384 135.344ZM67.9999 147.358C58.0185 147.358 49.1358 142.661 43.4384 135.344L38.7044 139.03C45.4896 147.744 56.0899 153.358 67.9999 153.358V147.358ZM99.0094 118.761C97.7321 134.766 84.3351 147.358 67.9999 147.358V153.358C87.4888 153.358 103.466 138.337 104.99 119.239L99.0094 118.761ZM99.8787 116.879L99.8786 116.879L104.121 121.121L104.121 121.121L99.8787 116.879ZM99 5V119H105V5H99ZM107 -3C102.582 -3 99 0.58172 99 5H105C105 3.89543 105.895 3 107 3V-3ZM125 -3H107V3H125V-3Z" fill="#8A8A8A" mask="url(#path-1-inside-1)"/>
<path d="M7.82031 204V202.633L9.03125 202.398V194.234L7.82031 194V192.625H13.2344C14.1042 192.625 14.8542 192.779 15.4844 193.086C16.1146 193.388 16.599 193.812 16.9375 194.359C17.276 194.901 17.4453 195.534 17.4453 196.258C17.4453 196.982 17.276 197.617 16.9375 198.164C16.599 198.706 16.1146 199.128 15.4844 199.43C14.8542 199.727 14.1042 199.875 13.2344 199.875H11.3125V202.398L12.5312 202.633V204H7.82031ZM11.3125 198.117H13.2344C13.8698 198.117 14.349 197.945 14.6719 197.602C15 197.253 15.1641 196.81 15.1641 196.273C15.1641 195.727 15 195.276 14.6719 194.922C14.349 194.562 13.8698 194.383 13.2344 194.383H11.3125V198.117ZM18.1797 204V202.633L19.3906 202.398V194.234L18.1797 194V192.625H22.8906V194L21.6719 194.234V197.516H26.3125V194.234L25.0938 194V192.625H29.8047V194L28.5859 194.234V202.398L29.8047 202.633V204H25.0938V202.633L26.3125 202.398V199.273H21.6719V202.398L22.8906 202.633V204H18.1797ZM35.8906 204.164C34.8646 204.164 33.9661 203.917 33.1953 203.422C32.4245 202.922 31.8229 202.237 31.3906 201.367C30.9635 200.497 30.75 199.508 30.75 198.398V198.227C30.75 197.122 30.9635 196.135 31.3906 195.266C31.8229 194.396 32.4219 193.711 33.1875 193.211C33.9583 192.711 34.8568 192.461 35.8828 192.461C36.9089 192.461 37.8099 192.711 38.5859 193.211C39.3672 193.711 39.974 194.396 40.4062 195.266C40.8438 196.135 41.0625 197.122 41.0625 198.227V198.398C41.0625 199.508 40.8464 200.497 40.4141 201.367C39.9818 202.237 39.375 202.922 38.5938 203.422C37.8177 203.917 36.9167 204.164 35.8906 204.164ZM35.8906 202.391C36.8542 202.391 37.5781 202.026 38.0625 201.297C38.5469 200.562 38.7891 199.596 38.7891 198.398V198.211C38.7891 197.424 38.6797 196.734 38.4609 196.141C38.2422 195.542 37.9167 195.076 37.4844 194.742C37.0573 194.409 36.5234 194.242 35.8828 194.242C34.9245 194.242 34.2083 194.607 33.7344 195.336C33.2656 196.065 33.0312 197.023 33.0312 198.211V198.398C33.0312 199.596 33.2682 200.562 33.7422 201.297C34.2214 202.026 34.9375 202.391 35.8906 202.391ZM44.375 204V202.633L45.5938 202.398V194.383H43.5234L43.3984 195.742H41.6719V192.625H51.8203V195.742H50.0859L49.9609 194.383H47.875V202.398L49.1016 202.633V204H44.375ZM57.6094 204.164C56.5833 204.164 55.6849 203.917 54.9141 203.422C54.1432 202.922 53.5417 202.237 53.1094 201.367C52.6823 200.497 52.4688 199.508 52.4688 198.398V198.227C52.4688 197.122 52.6823 196.135 53.1094 195.266C53.5417 194.396 54.1406 193.711 54.9062 193.211C55.6771 192.711 56.5755 192.461 57.6016 192.461C58.6276 192.461 59.5286 192.711 60.3047 193.211C61.0859 193.711 61.6927 194.396 62.125 195.266C62.5625 196.135 62.7812 197.122 62.7812 198.227V198.398C62.7812 199.508 62.5651 200.497 62.1328 201.367C61.7005 202.237 61.0938 202.922 60.3125 203.422C59.5365 203.917 58.6354 204.164 57.6094 204.164ZM57.6094 202.391C58.5729 202.391 59.2969 202.026 59.7812 201.297C60.2656 200.562 60.5078 199.596 60.5078 198.398V198.211C60.5078 197.424 60.3984 196.734 60.1797 196.141C59.9609 195.542 59.6354 195.076 59.2031 194.742C58.776 194.409 58.2422 194.242 57.6016 194.242C56.6432 194.242 55.9271 194.607 55.4531 195.336C54.9844 196.065 54.75 197.023 54.75 198.211V198.398C54.75 199.596 54.987 200.562 55.4609 201.297C55.9401 202.026 56.6562 202.391 57.6094 202.391ZM69.1562 204.164C68.026 204.164 67.0625 203.93 66.2656 203.461C65.4688 202.992 64.8568 202.341 64.4297 201.508C64.0078 200.674 63.7969 199.708 63.7969 198.609V198.219C63.7969 197.083 64.0078 196.083 64.4297 195.219C64.8516 194.354 65.4479 193.68 66.2188 193.195C66.9948 192.706 67.9115 192.461 68.9688 192.461C69.7812 192.461 70.5469 192.573 71.2656 192.797C71.9896 193.021 72.6172 193.357 73.1484 193.805V196.328H71.4609L71.1406 194.805C70.9323 194.628 70.6562 194.487 70.3125 194.383C69.974 194.273 69.5833 194.219 69.1406 194.219C68.5 194.219 67.9505 194.385 67.4922 194.719C67.0339 195.052 66.6823 195.518 66.4375 196.117C66.1927 196.716 66.0703 197.411 66.0703 198.203V198.609C66.0703 199.766 66.3411 200.69 66.8828 201.383C67.4245 202.07 68.2057 202.414 69.2266 202.414C69.6276 202.414 69.9948 202.375 70.3281 202.297C70.6667 202.219 70.9453 202.128 71.1641 202.023V200.094L69.5391 199.969V198.367H73.4531V202.969C72.9479 203.328 72.3385 203.617 71.625 203.836C70.9115 204.055 70.0885 204.164 69.1562 204.164ZM74.6016 204V202.633L75.8125 202.398V194.234L74.6016 194V192.625H79.9922C81.2995 192.625 82.3255 192.927 83.0703 193.531C83.8151 194.13 84.1875 194.958 84.1875 196.016C84.1875 196.688 84.0156 197.289 83.6719 197.82C83.3333 198.352 82.8672 198.766 82.2734 199.062L83.7188 202.406L84.6875 202.633V204H81.9219L80.1719 199.508H78.0938V202.398L79.3125 202.633V204H74.6016ZM78.0938 197.75H79.9531C81.2604 197.75 81.9141 197.206 81.9141 196.117C81.9141 195.591 81.7526 195.172 81.4297 194.859C81.1068 194.542 80.6276 194.383 79.9922 194.383H78.0938V197.75ZM85.4844 204V202.633L86.2969 202.516L89.9141 192.625H92.25L95.8438 202.516L96.6562 202.633V204H92.7812V202.633L93.5703 202.492L93.0703 200.93H89.0703L88.5703 202.492L89.3594 202.633V204H85.4844ZM89.6094 199.25H92.5312L91.2031 195.352L91.0938 195.008H91.0469L90.9297 195.375L89.6094 199.25ZM97.4141 204V202.633L98.625 202.398V194.234L97.4141 194V192.625H102.828C103.698 192.625 104.448 192.779 105.078 193.086C105.708 193.388 106.193 193.812 106.531 194.359C106.87 194.901 107.039 195.534 107.039 196.258C107.039 196.982 106.87 197.617 106.531 198.164C106.193 198.706 105.708 199.128 105.078 199.43C104.448 199.727 103.698 199.875 102.828 199.875H100.906V202.398L102.125 202.633V204H97.4141ZM100.906 198.117H102.828C103.464 198.117 103.943 197.945 104.266 197.602C104.594 197.253 104.758 196.81 104.758 196.273C104.758 195.727 104.594 195.276 104.266 194.922C103.943 194.562 103.464 194.383 102.828 194.383H100.906V198.117ZM107.773 204V202.633L108.984 202.398V194.234L107.773 194V192.625H112.484V194L111.266 194.234V197.516H115.906V194.234L114.688 194V192.625H119.398V194L118.18 194.234V202.398L119.398 202.633V204H114.688V202.633L115.906 202.398V199.273H111.266V202.398L112.484 202.633V204H107.773ZM123.367 204V202.633L124.586 202.398V200.102L121.211 194.156L120.117 194V192.625H124.656V194L123.727 194.133L125.617 197.766L125.789 198.133L125.836 198.125L126.008 197.781L128.109 194.133L126.859 194V192.625H131.312V194L130.188 194.156L126.859 199.922V202.398L128.078 202.633V204H123.367Z" fill="#8A8A8A"/>
</svg>
